<?xml version="1.0" encoding="utf-8"?>
<!-- Generator: Adobe Illustrator 21.0.2, SVG Export Plug-In . SVG Version: 6.00 Build 0)  -->
<svg version="1.1" id="Layer_1" xmlns="http://www.w3.org/2000/svg" xmlns:xlink="http://www.w3.org/1999/xlink" x="0px" y="0px"
	 viewBox="0 0 100.2 100.2" style="enable-background:new 0 0 100.2 100.2;" xml:space="preserve">
<style type="text/css">
	.st0{fill:#E6E6E6;}
</style>
<polygon class="st0" points="0,78.6 0,90.2 90.2,0 78.6,0 "/>
<polygon class="st0" points="0,53.7 0,65.2 65.2,0 53.7,0 "/>
<polygon class="st0" points="0,28.7 0,40.3 40.3,0 28.7,0 "/>
<polygon class="st0" points="0,3.8 0,15.3 15.3,0 3.8,0 "/>
<polygon class="st0" points="100.2,89.8 100.2,78.2 78.2,100.2 89.8,100.2 "/>
<polygon class="st0" points="100.2,64.8 100.2,53.3 53.3,100.2 64.8,100.2 "/>
<polygon class="st0" points="100.2,39.9 100.2,28.3 28.3,100.2 39.9,100.2 "/>
<polygon class="st0" points="100.2,14.9 100.2,3.4 3.4,100.2 14.9,100.2 "/>
</svg>
